<svg width="55" height="54" viewBox="0 0 55 54" fill="none" xmlns="http://www.w3.org/2000/svg">
<path d="M12.2278 6.4953C12.6438 3.94121 14.4185 3.67061 16.4038 3.84733C16.7718 1.13171 17.6118 0.0589857 19.3318 0.0286127C19.7782 0.0147391 20.2216 0.109572 20.6261 0.30548C21.0307 0.501388 21.3852 0.7929 21.6611 1.15656C22.1931 1.93011 22.4219 2.88386 22.3011 3.82524H23.4158C23.792 3.77805 24.1735 3.81042 24.5373 3.92039C24.9011 4.03037 25.2395 4.21566 25.5321 4.46504C25.8246 4.71442 26.0653 5.0227 26.2394 5.37121C26.4136 5.71971 26.5176 6.10119 26.5451 6.49254H34.3971C34.9481 6.44512 35.5023 6.5227 36.0213 6.71986C36.5403 6.91702 37.0116 7.22903 37.4022 7.63412C37.7928 8.03921 38.0933 8.52765 38.2829 9.06537C38.4725 9.60308 38.5465 10.1771 38.4998 10.7475V27.6888C38.4998 27.8627 38.5531 28.0947 38.4678 28.2051C38.2998 28.426 38.0411 28.7187 37.8278 28.7132C37.6145 28.7076 37.3785 28.3956 37.2438 28.1609C37.1505 27.9994 37.2145 27.7467 37.2145 27.5259V10.702C37.2758 10.0498 37.1001 9.39733 36.7216 8.87215C36.3431 8.34698 35.7891 7.98683 35.1678 7.86209C35.0199 7.8311 34.8694 7.81538 34.7185 7.81515H26.8318C26.7571 7.81515 26.6825 7.83034 26.5651 7.84414V10.0351H34.1971C34.8705 10.0351 35.0811 10.256 35.0838 10.9449V28.2355C35.0838 28.7145 34.9851 29.1177 34.4438 29.1784C34.0171 29.2295 33.7771 28.8678 33.7771 28.2231V11.3895H5.02379V48.6241H33.9091C34.0985 48.6241 34.3358 48.555 34.4678 48.6489C34.6811 48.8049 34.9798 49.0631 34.9798 49.2826C34.9798 49.5021 34.6811 49.7465 34.4638 49.9121C34.3505 49.9977 34.1331 49.937 33.9625 49.937H4.77045C3.81312 49.937 3.70379 49.8238 3.70379 48.8132V11.1686C3.70379 10.1359 3.80245 10.0365 4.81845 10.0365H12.2211V7.84276C12.0358 7.84276 11.8518 7.81653 11.6718 7.81653H4.28779C3.92194 7.78135 3.5531 7.83015 3.20755 7.95945C2.86199 8.08874 2.54823 8.29536 2.28862 8.56457C2.029 8.83378 1.82992 9.15897 1.70556 9.51696C1.58119 9.87495 1.53461 10.2569 1.56912 10.6357V49.3364C1.5347 49.7146 1.58099 50.096 1.7047 50.4535C1.82842 50.8111 2.02653 51.1362 2.28503 51.4057C2.54352 51.6752 2.85607 51.8825 3.20055 52.0131C3.54503 52.1436 3.91302 52.1942 4.27845 52.1611H34.4918C35.1979 52.1929 35.8876 51.9343 36.4105 51.4418C36.4675 51.3619 36.5414 51.2964 36.6264 51.2503C36.7114 51.2041 36.8054 51.1785 36.9014 51.1753C36.9973 51.1721 37.0927 51.1914 37.1804 51.2319C37.2681 51.2723 37.3459 51.3327 37.4078 51.4087C37.7251 51.7635 37.5825 52.128 37.2665 52.4303C36.6707 53.0159 35.9018 53.3768 35.0838 53.4547C34.8705 53.4741 34.6571 53.4727 34.4598 53.4727H4.25179C3.3745 53.5231 2.50795 53.2532 1.80308 52.71C1.09822 52.1669 0.599732 51.3849 0.394453 50.5003C0.307039 50.0804 0.2681 49.6512 0.278453 49.2218C0.278453 36.4035 0.278453 23.581 0.278453 10.7544C0.229705 10.1845 0.301873 9.61048 0.489903 9.07249C0.677932 8.5345 0.977277 8.04558 1.36697 7.63997C1.75667 7.23436 2.22729 6.92186 2.74587 6.72437C3.26446 6.52688 3.81848 6.44917 4.36912 6.49668H11.5825L12.2278 6.4953ZM13.5318 9.99786H25.2251V6.85702C25.2578 6.62648 25.238 6.39123 25.1673 6.17002C25.0966 5.94881 24.977 5.74777 24.8179 5.58294C24.6589 5.41811 24.4648 5.29405 24.2512 5.22067C24.0376 5.14728 23.8105 5.1266 23.5878 5.16027C22.9825 5.14647 22.3771 5.16027 21.7718 5.16027C21.6673 5.17468 21.5611 5.16366 21.4615 5.12809C21.3619 5.09252 21.2717 5.03338 21.198 4.95536C21.1243 4.87735 21.0693 4.78262 21.0372 4.67871C21.0051 4.57479 20.9968 4.46456 21.0131 4.35677V3.06591C21.0169 2.63916 20.8655 2.22654 20.5892 1.90993C20.3128 1.59333 19.9316 1.39587 19.5211 1.35674C19.1211 1.32693 18.7247 1.45257 18.4094 1.70913C18.0941 1.9657 17.8824 2.33476 17.8158 2.74424C17.7565 3.22624 17.7342 3.71235 17.7491 4.198C17.7318 4.99184 17.5878 5.14508 16.8025 5.15337C16.1625 5.15337 15.5238 5.13542 14.8838 5.18236C14.5274 5.18709 14.1873 5.33747 13.9376 5.60073C13.6878 5.86399 13.5487 6.21878 13.5505 6.5878C13.5065 7.7047 13.5318 8.8216 13.5318 9.99786Z" fill="#657D79"/>
<path d="M42.3439 32.8742C43.1219 32.1332 43.9576 31.46 44.8425 30.8613C45.8242 30.2696 46.9484 29.9797 48.0835 30.0254C49.2185 30.0711 50.3175 30.4506 51.2519 31.1195C52.2243 31.7262 53.0161 32.599 53.54 33.6419C54.0639 34.6847 54.2996 35.8571 54.2212 37.0298C54.0202 40.3649 52.7752 43.5414 50.6745 46.0782C48.5313 48.8538 45.9759 51.2593 43.1039 53.2048C42.9228 53.3608 42.6947 53.4462 42.4592 53.4462C42.2237 53.4462 41.9956 53.3608 41.8145 53.2048C38.0468 50.7245 34.8745 47.3879 32.5385 43.4482C31.4031 41.4917 30.7645 39.2694 30.6825 36.9884C30.6297 35.5736 31.0146 34.1783 31.7812 33.006C32.5478 31.8336 33.6561 30.9454 34.9444 30.4709C36.2327 29.9964 37.6337 29.9604 38.9431 30.3681C40.2526 30.7758 41.402 31.606 42.2239 32.7376C42.2919 32.8107 42.3585 32.8963 42.3439 32.8742ZM31.9825 37.2659C32.0476 38.6522 32.3728 40.012 32.9399 41.2696C34.9545 45.8256 38.4065 49.052 42.2652 51.8629C42.3336 51.8925 42.4078 51.9053 42.4818 51.9003C42.5558 51.8953 42.6277 51.8725 42.6919 51.8339C46.1788 49.4823 49.1147 46.3541 51.2852 42.6778C52.3303 40.8908 52.9003 38.8494 52.9372 36.7606C52.9614 35.54 52.5777 34.3483 51.851 33.3869C51.1242 32.4256 50.0992 31.7536 48.9491 31.4847C47.799 31.2158 46.5945 31.3665 45.5394 31.9113C44.4842 32.456 43.6432 33.3615 43.1585 34.4744C43.0065 34.8071 42.8692 35.1122 42.4439 35.1122C42.0185 35.1122 41.8785 34.8029 41.7279 34.4716C41.2314 33.3346 40.3607 32.4176 39.2713 31.8842C38.1819 31.3508 36.9449 31.2358 35.7812 31.5599C34.6016 31.8975 33.5744 32.6543 32.8798 33.6976C32.1852 34.741 31.8675 36.0043 31.9825 37.2659Z" fill="#657D79"/>
<path d="M13.9142 26.9709C14.3729 24.9124 14.8395 22.778 15.3355 20.6505C15.401 20.3559 15.5637 20.0942 15.7956 19.9105C16.1729 19.6593 16.5502 19.9575 16.6862 20.5732C17.2249 22.9138 17.7582 25.2548 18.2862 27.5963C18.5956 28.9631 18.9062 30.3285 19.3075 31.6897C19.5333 29.9649 19.76 28.2396 19.9875 26.5139C20.4862 22.6482 20.9893 18.7853 21.4969 14.9252C21.5542 14.4834 21.6955 14.0775 22.1982 14.0969C22.7009 14.1162 22.7969 14.5179 22.8382 14.968C23.2827 19.0748 23.7395 23.1811 24.2089 27.287C24.2329 27.4969 24.2796 27.7012 24.3329 28.0174C24.5636 27.5817 24.828 27.1662 25.1235 26.7748C25.3336 26.5217 25.6238 26.3543 25.9422 26.3027C27.2849 26.2543 28.6302 26.2847 29.9742 26.2778C30.4009 26.2778 30.7475 26.4324 30.7609 26.9198C30.7755 27.4513 30.4196 27.6018 29.9609 27.6018C28.8249 27.6018 27.6942 27.5769 26.5502 27.617C26.4201 27.6304 26.2939 27.6709 26.1793 27.7362C26.0648 27.8014 25.9641 27.89 25.8835 27.9967C25.3915 28.7159 24.9862 29.4974 24.4849 30.2056C24.3922 30.326 24.2746 30.4232 24.1408 30.4902C24.0069 30.5571 23.8602 30.5919 23.7116 30.5922C23.5196 30.5659 23.2622 30.178 23.2316 29.9295C22.9156 27.3851 22.6435 24.8337 22.3555 22.2851C22.3107 21.6987 22.2115 21.118 22.0595 20.5511C21.7867 22.6349 21.5124 24.7182 21.2369 26.8011C20.8573 29.6966 20.48 32.5908 20.1049 35.4836C20.0542 35.8895 19.9409 36.2277 19.4929 36.2692C19.0022 36.3161 18.8529 35.9599 18.7555 35.5499C17.9555 31.9833 17.1555 28.4182 16.3555 24.8544C16.277 24.4553 16.1586 24.0657 16.0022 23.692C15.9355 23.9363 15.8609 24.1793 15.8062 24.4292C15.4969 25.8015 15.2142 27.1793 14.8729 28.5434C14.8022 28.8195 14.5622 29.2061 14.3395 29.2558C14.1894 29.2585 14.0408 29.2236 13.9063 29.1542C13.7719 29.0847 13.6557 28.9827 13.5675 28.8568C13.3176 28.3755 12.9235 27.9914 12.4445 27.7621C11.9655 27.5328 11.4275 27.4707 10.9115 27.5852C10.1943 27.6365 9.47479 27.6425 8.75688 27.6032C8.30755 27.6032 7.99155 27.4085 8.00222 26.9405C8.01288 26.4725 8.34088 26.2778 8.78488 26.2778C10.0636 26.2778 11.3622 26.2267 12.6515 26.3109C13.0609 26.3441 13.4635 26.732 13.9142 26.9709Z" fill="#657D79"/>
<path d="M14.1381 39.0027H19.4181C19.6061 39.0027 19.8448 38.9654 19.9675 39.0648C20.1568 39.2125 20.3941 39.479 20.3941 39.6695C20.3941 39.86 20.1275 40.1348 19.9141 40.2853C19.7808 40.3805 19.5475 40.3294 19.3581 40.3294H8.95813C8.19947 40.3294 7.89147 40.1445 7.8728 39.6889C7.85413 39.2333 8.1928 38.9986 8.9688 38.9986L14.1381 39.0027Z" fill="#657D79"/>
<path d="M26.1012 43.0755H30.0238C30.6105 43.0755 30.9278 43.3184 30.8918 43.7492C30.8465 44.2738 30.4918 44.4008 30.0398 44.4008H22.0825C21.6292 44.4008 21.2572 44.2628 21.2492 43.7381C21.2412 43.2135 21.6052 43.0644 22.0612 43.0755C23.4132 43.0796 24.7558 43.0755 26.1012 43.0755Z" fill="#657D79"/>
<path d="M13.1733 43.0755H16.5213C17.1093 43.0755 17.4147 43.3184 17.3733 43.7575C17.3267 44.289 16.9667 44.3995 16.5213 44.3981H9.70132C9.24266 44.3981 8.87866 44.2434 8.87599 43.7354C8.87332 43.2273 9.24266 43.0727 9.69866 43.0727C10.864 43.081 12.02 43.0755 13.1733 43.0755Z" fill="#657D79"/>
<path d="M26.4147 40.3308H24.264C23.8107 40.3308 23.4547 40.1735 23.4734 39.6405C23.4907 39.1504 23.8294 38.9986 24.26 38.9999H28.6214C29.06 38.9999 29.3867 39.1877 29.388 39.6626C29.3894 40.1375 29.06 40.3253 28.6254 40.3253L26.4147 40.3308Z" fill="#657D79"/>
</svg>
