<svg width="57" height="54" viewBox="0 0 57 54" fill="none" xmlns="http://www.w3.org/2000/svg">
<path d="M0 18.5932V16.0944C0.149333 15.1473 0.224 14.1809 0.456 13.2559C1.12172 10.0091 2.71667 7.04533 5.03293 4.75089C7.34919 2.45645 10.2793 0.937793 13.4413 0.392888C17.2957 -0.430386 21.3076 0.216847 24.7373 2.21527C25.9053 2.86138 26.988 3.67179 28.06 4.37589C29.268 3.60138 30.46 2.69848 31.752 2.02889C34.6084 0.463392 37.8433 -0.206916 41.0616 0.0998296C44.2799 0.406575 47.3423 1.6771 49.8747 3.75623C52.4071 5.83535 54.3 8.6331 55.3222 11.8078C56.3444 14.9824 56.4515 18.3966 55.6307 21.6333C54.7174 25.2665 53.0877 28.6645 50.844 31.6136C48.2814 35.0899 45.4068 38.3072 42.2587 41.2225C38.2667 45.0012 34.2187 48.726 30.1667 52.4232C29.6676 52.8835 29.0753 53.2222 28.4333 53.4145C28.0175 53.4949 27.5886 53.4635 27.1878 53.3233C26.787 53.1831 26.4276 52.9388 26.144 52.6138C22.544 49.339 18.9227 46.1029 15.3547 42.8019C11.8737 39.7348 8.64891 36.3689 5.71467 32.7401C3.16591 29.626 1.37379 25.9257 0.488 21.9481C0.266667 20.8422 0.16 19.7129 0 18.5932ZM31.46 21.48V14.4584H24.6667V21.5077H17.904V28.5487H24.6813V35.5427H31.4813V28.5293H38.2547V21.48H31.46Z" fill="#657D79"/>
</svg>
