<svg width="55" height="56" viewBox="0 0 55 56" fill="none" xmlns="http://www.w3.org/2000/svg">
<path d="M9.62386 39.0468L10.4999 39.9055C10.8598 39.5413 11.2008 39.1574 11.5212 38.7555C11.5999 38.6492 11.5212 38.3496 11.4359 38.1922C10.168 36.0097 9.53068 33.4968 9.59944 30.9509C9.6682 28.405 10.4402 25.9328 11.8239 23.8272L12.1572 23.3081C11.9439 23.2942 11.7692 23.2777 11.6025 23.2777H5.4532C4.85737 23.3035 4.26283 23.2013 3.70704 22.9774C3.15125 22.7535 2.64626 22.4129 2.22389 21.977C1.80152 21.5411 1.47091 21.0193 1.2529 20.4446C1.0349 19.8698 0.934214 19.2545 0.957198 18.6375C0.946531 15.1722 0.946531 11.7079 0.957198 8.24442C0.9324 7.62775 1.03166 7.01248 1.24867 6.43764C1.46568 5.86279 1.79572 5.34093 2.21783 4.90515C2.63995 4.46937 3.14493 4.1292 3.70074 3.9062C4.25655 3.68321 4.85105 3.58226 5.44653 3.60977H9.87853C10.1518 2.823 10.5976 2.11257 11.1809 1.5343C11.7641 0.956028 12.4689 0.525666 13.2399 0.277027C14.4357 -0.116142 15.7295 -0.0405612 16.875 0.4894C18.0206 1.01936 18.9381 1.96674 19.4532 3.15142C19.4997 3.30459 19.5972 3.43571 19.7283 3.52142C19.8594 3.60713 20.0157 3.64186 20.1692 3.61944C21.5025 3.59735 22.8359 3.60563 24.1692 3.61944C24.7558 3.60337 25.3394 3.71148 25.8842 3.93715C26.4291 4.16282 26.9237 4.5013 27.3377 4.93185C27.7518 5.36239 28.0766 5.87595 28.2923 6.44104C28.5079 7.00613 28.6099 7.61086 28.5919 8.21819V14.3646H34.0372C34.4004 13.3195 35.0657 12.4156 35.9427 11.7761C36.8197 11.1366 37.8658 10.7924 38.9384 10.7904C40.0111 10.7885 41.0583 11.1288 41.9375 11.7651C42.8167 12.4015 43.4851 13.3029 43.8519 14.3466H48.2185C48.8228 14.3146 49.4269 14.4144 49.9915 14.6396C50.5561 14.8648 51.0688 15.2103 51.4962 15.6538C51.9236 16.0973 52.2563 16.6288 52.4726 17.2139C52.6889 17.799 52.784 18.4247 52.7519 19.0503V29.3302C52.7854 29.9516 52.692 30.5733 52.4777 31.1547C52.2634 31.7362 51.933 32.2642 51.5082 32.7045C51.0834 33.1448 50.5737 33.4873 50.0124 33.7097C49.451 33.9321 48.8507 34.0294 48.2505 33.9952C47.3946 33.9651 46.5539 34.2356 45.8652 34.7628C44.1919 35.9805 42.4692 37.1236 40.6839 38.3524V34.0311C40.4479 34.0173 40.2745 34.0049 40.0999 34.0021C38.6785 34.0021 37.2572 34.0325 35.8332 33.9842C35.3212 33.969 35.1932 34.1678 35.0612 34.6261C34.5089 36.9963 33.3299 39.1603 31.6564 40.8755C29.9829 42.5908 27.8811 43.7895 25.5865 44.3372C23.9813 44.7757 22.3071 44.8747 20.6641 44.6283C19.0211 44.3818 17.4429 43.795 16.0239 42.9028L15.5012 42.5922L14.2612 43.9161L15.1839 44.5913C15.094 44.7264 14.9965 44.8559 14.8919 44.9792C12.4999 47.456 10.1052 49.9493 7.69186 52.4344C7.27679 52.8847 6.76678 53.2296 6.20168 53.4421C5.63658 53.6545 5.03169 53.7289 4.43426 53.6592C3.83684 53.5896 3.26305 53.3779 2.75771 53.0406C2.25238 52.7034 1.82919 52.2497 1.5212 51.7151C1.07135 50.974 0.873002 50.0988 0.957523 49.2279C1.04204 48.357 1.40461 47.5401 1.98786 46.9065C4.45986 44.2834 6.98786 41.7044 9.4932 39.1117C9.51586 39.0827 9.55586 39.0827 9.62386 39.0468ZM22.5572 19.6964C20.3364 19.6945 18.165 20.3746 16.3176 21.6507C14.4702 22.9268 13.0298 24.7416 12.1786 26.8655C11.3274 28.9893 11.1037 31.3269 11.5357 33.5824C11.9677 35.838 13.0361 37.9102 14.6056 39.5369C16.1752 41.1637 18.1755 42.2719 20.3534 42.7213C22.5313 43.1708 24.7891 42.9414 26.841 42.062C28.893 41.1827 30.647 39.693 31.8812 37.7813C33.1154 35.8696 33.7743 33.6219 33.7745 31.3224C33.7749 28.2408 32.5935 25.2851 30.4901 23.1051C28.3867 20.925 25.5333 19.699 22.5572 19.6964ZM44.2772 16.129C44.1057 16.9158 43.8738 17.6873 43.5839 18.4359C43.2061 19.1142 42.7734 19.758 42.2905 20.3605C44.1248 21.1932 45.6366 22.6385 46.5843 24.4654C47.532 26.2924 47.8609 28.3955 47.5185 30.4388H35.5185V32.2405H42.4239V35.0017C43.2465 34.4342 44.0305 33.9731 44.7279 33.3974C45.2158 32.9331 45.7973 32.5867 46.4302 32.3833C47.0631 32.1799 47.7318 32.1245 48.3879 32.2212C48.4588 32.2287 48.5303 32.2287 48.6012 32.2212C49.2381 32.1864 49.8393 31.9062 50.2867 31.4356C50.734 30.9649 50.9951 30.338 51.0185 29.6781C51.047 26.0113 51.047 22.3439 51.0185 18.6762C51.0067 18.0337 50.7629 17.4192 50.3352 16.9536C49.9075 16.488 49.3269 16.2051 48.7079 16.1607C47.2105 16.0793 45.7012 16.129 44.2772 16.129ZM9.5772 5.39074C8.11053 5.39074 6.68653 5.37693 5.2692 5.39074C4.92577 5.38764 4.58527 5.45621 4.26799 5.59234C3.95071 5.72847 3.66317 5.92938 3.42251 6.18308C3.18185 6.43678 2.99301 6.73807 2.86725 7.06898C2.74149 7.39989 2.68139 7.75364 2.69053 8.10912C2.68075 11.6655 2.68075 15.2215 2.69053 18.777C2.68351 19.1326 2.74575 19.486 2.87356 19.8162C3.00136 20.1464 3.1921 20.4465 3.4344 20.6987C3.67669 20.9509 3.96557 21.1499 4.28378 21.2839C4.602 21.418 4.94304 21.4842 5.28653 21.4788C8.00253 21.494 10.7172 21.4788 13.4332 21.4788C13.5914 21.4882 13.7487 21.4488 13.8852 21.3656C14.5692 20.8354 15.2412 20.2859 15.9905 19.6812H6.1652C5.92755 17.6122 6.28127 15.5165 7.18253 13.6536C8.1626 11.8301 9.70613 10.4006 11.5652 9.59464C10.9566 9.08699 10.4632 8.44706 10.1199 7.72014C9.77663 6.99321 9.5918 6.19705 9.57853 5.38798L9.5772 5.39074ZM17.9919 9.58359C19.5911 10.2702 20.9598 11.429 21.9274 12.9155C22.895 14.402 23.4187 16.1505 23.4332 17.9431L25.1879 18.1488C25.3635 17.078 25.8905 16.1028 26.6799 15.3876C26.793 15.2534 26.8526 15.0797 26.8465 14.9016C26.8572 12.6112 26.8679 10.3194 26.8465 8.03181C26.8572 7.38888 26.6338 6.76534 26.2208 6.28519C25.8077 5.80504 25.2352 5.50347 24.6172 5.44044C23.0799 5.3438 21.5332 5.41835 19.9639 5.41835C19.9467 6.21906 19.7616 7.00634 19.4213 7.72558C19.081 8.44482 18.5937 9.07882 17.9932 9.58359H17.9919ZM9.54386 41.6175C9.56253 41.6175 9.51986 41.6175 9.4972 41.6368C7.40253 43.8043 5.2892 45.958 3.23053 48.1628C2.92727 48.5499 2.74456 49.0231 2.70653 49.52C2.67243 49.9675 2.77476 50.4148 2.99913 50.799C3.22349 51.1831 3.55858 51.4847 3.9572 51.6613C4.36563 51.8648 4.82607 51.9284 5.27175 51.8428C5.71742 51.7571 6.12517 51.5267 6.43586 51.185C8.45631 49.1076 10.4763 47.0206 12.4959 44.924C12.5367 44.8775 12.5713 44.8255 12.5985 44.7693L9.54386 41.6175ZM18.2225 5.42387C18.2215 6.3638 17.86 7.26483 17.2175 7.92887C16.5751 8.59292 15.7043 8.96564 14.7965 8.96509C13.8888 8.96454 13.0184 8.59077 12.3767 7.92595C11.735 7.26112 11.3745 6.35966 11.3745 5.41973C11.3745 4.4798 11.735 3.57834 12.3767 2.91352C13.0184 2.24869 13.8888 1.87492 14.7965 1.87437C15.7043 1.87382 16.5751 2.24654 17.2175 2.91059C17.86 3.57463 18.2215 4.47566 18.2225 5.41559V5.42387ZM38.9279 19.7033C38.9268 20.6594 38.5591 21.5758 37.9057 22.2513C37.2522 22.9267 36.3665 23.3058 35.4432 23.3053C34.5199 23.3047 33.6346 22.9246 32.9819 22.2484C32.3292 21.5721 31.9625 20.6552 31.9625 19.6992C31.9625 18.7431 32.3292 17.8262 32.9819 17.15C33.6346 16.4738 34.5199 16.0936 35.4432 16.0931C36.3665 16.0925 37.2522 16.4716 37.9057 17.1471C38.5591 17.8225 38.9268 18.739 38.9279 19.695V19.7033ZM33.7652 16.129C32.2065 16.129 30.6985 16.0848 29.1959 16.1428C28.6711 16.1896 28.1735 16.4047 27.7722 16.758C27.371 17.1114 27.0861 17.5855 26.9572 18.1143C26.8372 18.5409 26.9252 18.7328 27.3372 18.8957C29.1673 19.6309 30.8054 20.8002 32.1199 22.3099C32.2332 22.4383 32.3519 22.5612 32.3732 22.586L35.6239 20.2197C35.0481 19.7162 34.5835 19.0905 34.2614 18.385C33.9394 17.6795 33.7674 16.9106 33.7572 16.1304L33.7652 16.129ZM12.7665 11.1354C10.1345 11.6296 7.56653 15.2468 7.92653 17.8782H12.2505C12.4239 15.6182 12.5932 13.3844 12.7665 11.1354ZM21.6399 17.9003C21.8532 15.0314 19.1999 11.3673 16.7785 11.1851C16.9505 13.4189 17.1239 15.6499 17.2985 17.9003H21.6399ZM45.8292 28.6233C45.833 27.1012 45.3603 25.6187 44.482 24.3981C43.6037 23.1775 42.3669 22.2845 40.9572 21.8529C41.1292 24.1212 41.3025 26.3688 41.4745 28.6178L45.8292 28.6233ZM36.4292 28.6054C36.5999 26.3523 36.7705 24.1226 36.9452 21.8212C35.633 22.2204 34.4699 23.0253 33.6119 24.1281C34.0932 25.3596 34.5812 26.4945 34.9799 27.6597C35.3292 28.6786 35.2852 28.6924 36.4239 28.6012L36.4292 28.6054ZM38.7039 21.5644C38.5261 23.8893 38.3483 26.2321 38.1705 28.593H39.7399C39.6932 27.9551 39.6479 27.3615 39.6065 26.7706C39.483 25.1525 39.3599 23.5391 39.2372 21.9302C39.2052 21.621 39.1532 21.3573 38.7039 21.5644ZM15.5585 17.8823C15.3865 15.6085 15.2212 13.4023 15.0385 11.1975C15.0252 11.0456 14.8639 10.9062 14.7719 10.7557C14.6799 10.9034 14.5199 11.0443 14.5052 11.1975C14.3719 12.6057 14.2745 14.0139 14.1665 15.4235C14.1065 16.2311 14.0519 17.0415 13.9919 17.8782L15.5585 17.8823ZM13.9585 41.5098C13.5585 41.068 13.1359 40.5958 12.7225 40.1416C12.4052 40.4812 12.0825 40.8209 11.7892 41.137L13.0279 42.461L13.9585 41.5098Z" fill="#657D79"/>
<path d="M44.1878 39.3671H51.6865C52.0604 39.3352 52.4365 39.3877 52.7889 39.5209C53.1413 39.6541 53.4616 39.8648 53.7278 40.1386C53.9939 40.4123 54.1996 40.7426 54.3306 41.1066C54.4615 41.4706 54.5147 41.8597 54.4865 42.247V52.5821C54.5142 52.9649 54.462 53.3493 54.3335 53.7094C54.205 54.0694 54.0031 54.3966 53.7417 54.6687C53.4803 54.9409 53.1654 55.1516 52.8183 55.2866C52.4713 55.4215 52.1003 55.4776 51.7305 55.451H36.5212C36.1558 55.4756 35.7895 55.4197 35.4465 55.2868C35.1036 55.1538 34.7919 54.947 34.5319 54.68C34.272 54.4129 34.0698 54.0917 33.9388 53.7377C33.8078 53.3836 33.7508 53.0048 33.7718 52.6263V42.1766C33.7516 41.7981 33.8092 41.4194 33.9408 41.0657C34.0724 40.712 34.2751 40.3912 34.5353 40.1246C34.7956 39.858 35.1075 39.6516 35.4506 39.5191C35.7936 39.3866 36.1599 39.331 36.5252 39.3561C39.0789 39.3607 41.6332 39.3643 44.1878 39.3671ZM44.0985 53.6728H51.5985C52.4852 53.6728 52.7638 53.3842 52.7638 52.4744V42.3616C52.7638 41.4435 52.4892 41.155 51.6092 41.155H36.6652C35.7785 41.155 35.5012 41.4421 35.4998 42.3505V52.4648C35.4998 53.3801 35.7772 53.67 36.6545 53.6714L44.0985 53.6728Z" fill="#657D79"/>
<path d="M13.0469 31.3017C13.0503 29.3574 13.6103 27.4578 14.656 25.843C15.7017 24.2281 17.1863 22.9705 18.9221 22.229C20.6578 21.4874 22.567 21.2953 24.4082 21.6769C26.2494 22.0585 27.94 22.9966 29.2664 24.3728C30.5929 25.7489 31.4956 27.5013 31.8605 29.4085C32.2254 31.3157 32.0361 33.2921 31.3166 35.088C30.597 36.8838 29.3795 38.4185 27.8179 39.4982C26.2563 40.5778 24.4206 41.1538 22.5429 41.1536C21.2943 41.1534 20.0581 40.8983 18.9048 40.4029C17.7516 39.9075 16.704 39.1815 15.822 38.2664C14.94 37.3514 14.2409 36.2652 13.7647 35.0702C13.2885 33.8751 13.0446 32.5945 13.0469 31.3017ZM14.7736 31.2754C14.7662 32.8653 15.214 34.4219 16.0603 35.7485C16.9067 37.0751 18.1136 38.1124 19.5288 38.7294C20.944 39.3463 22.504 39.5153 24.0119 39.215C25.5197 38.9147 26.9079 38.1586 28.0011 37.042C29.0942 35.9255 29.8435 34.4987 30.1541 32.9416C30.4648 31.3845 30.3229 29.7671 29.7465 28.2934C29.1701 26.8198 28.185 25.5559 26.9155 24.6615C25.646 23.7671 24.149 23.2822 22.6136 23.268C21.5904 23.2585 20.5755 23.4584 19.6272 23.8561C18.6788 24.2538 17.8156 24.8415 17.0872 25.5855C16.3588 26.3295 15.7794 27.2151 15.3824 28.1915C14.9853 29.168 14.7784 30.216 14.7736 31.2754Z" fill="#657D79"/>
<path d="M47.5947 19.6647V17.9528H49.2747V19.6647H47.5947Z" fill="#657D79"/>
<path d="M49.2801 23.2446H47.6201V21.5216H49.2748L49.2801 23.2446Z" fill="#657D79"/>
<path d="M4.43457 8.92781V7.20483H6.09457V8.92781H4.43457Z" fill="#657D79"/>
<path d="M4.42871 12.4994V10.7889H6.10871V12.4994H4.42871Z" fill="#657D79"/>
<path d="M51.0295 50.1109V51.8449H37.2588V42.9732H38.9255V50.0598H40.6588V48.352H42.3921V50.0694H44.1081V46.5558H45.8415V50.0556H47.5748V44.7583H49.2801V50.1109H51.0295Z" fill="#657D79"/>
</svg>
